<mxfile host="Electron" modified="2023-11-06T03:24:03.120Z" agent="Mozilla/5.0 (X11; Linux x86_64) AppleWebKit/537.36 (KHTML, like Gecko) draw.io/21.3.7 Chrome/112.0.5615.204 Electron/24.5.0 Safari/537.36" etag="syT_7maYjW3q7clA4RTy" version="21.3.7" type="device">
  <diagram name="Page-1" id="OeT306TO7XM15mCSsZXH">
    <mxGraphModel dx="1366" dy="830" grid="1" gridSize="10" guides="1" tooltips="1" connect="1" arrows="1" fold="1" page="1" pageScale="1" pageWidth="850" pageHeight="1100" math="0" shadow="0">
      <root>
        <mxCell id="0" />
        <mxCell id="1" parent="0" />
        <mxCell id="M5ew_5Aiv0LB9XWBmTWh-2" style="edgeStyle=orthogonalEdgeStyle;rounded=0;orthogonalLoop=1;jettySize=auto;html=1;entryX=0;entryY=0.5;entryDx=0;entryDy=0;dashed=1;" edge="1" parent="1" source="M5ew_5Aiv0LB9XWBmTWh-1" target="M5ew_5Aiv0LB9XWBmTWh-3">
          <mxGeometry relative="1" as="geometry">
            <mxPoint x="210" y="161.5" as="targetPoint" />
          </mxGeometry>
        </mxCell>
        <mxCell id="M5ew_5Aiv0LB9XWBmTWh-4" value="SocketIO" style="edgeLabel;html=1;align=center;verticalAlign=middle;resizable=0;points=[];" vertex="1" connectable="0" parent="M5ew_5Aiv0LB9XWBmTWh-2">
          <mxGeometry x="-0.2937" y="-2" relative="1" as="geometry">
            <mxPoint x="13" y="-2" as="offset" />
          </mxGeometry>
        </mxCell>
        <mxCell id="M5ew_5Aiv0LB9XWBmTWh-1" value="Mobile client" style="outlineConnect=0;dashed=0;verticalLabelPosition=bottom;verticalAlign=top;align=center;html=1;shape=mxgraph.aws3.mobile_client;fillColor=#080808;gradientColor=none;" vertex="1" parent="1">
          <mxGeometry x="40" y="130" width="40.5" height="63" as="geometry" />
        </mxCell>
        <mxCell id="M5ew_5Aiv0LB9XWBmTWh-10" style="edgeStyle=orthogonalEdgeStyle;rounded=0;orthogonalLoop=1;jettySize=auto;html=1;entryX=0.299;entryY=0.013;entryDx=0;entryDy=0;entryPerimeter=0;" edge="1" parent="1" source="M5ew_5Aiv0LB9XWBmTWh-3" target="M5ew_5Aiv0LB9XWBmTWh-9">
          <mxGeometry relative="1" as="geometry" />
        </mxCell>
        <mxCell id="M5ew_5Aiv0LB9XWBmTWh-11" value="Produce" style="edgeLabel;html=1;align=center;verticalAlign=middle;resizable=0;points=[];" vertex="1" connectable="0" parent="M5ew_5Aiv0LB9XWBmTWh-10">
          <mxGeometry x="-0.1429" y="2" relative="1" as="geometry">
            <mxPoint x="12" as="offset" />
          </mxGeometry>
        </mxCell>
        <mxCell id="M5ew_5Aiv0LB9XWBmTWh-3" value="Location Ingestor" style="rounded=1;whiteSpace=wrap;html=1;" vertex="1" parent="1">
          <mxGeometry x="220" y="133" width="120" height="60" as="geometry" />
        </mxCell>
        <mxCell id="M5ew_5Aiv0LB9XWBmTWh-14" style="edgeStyle=orthogonalEdgeStyle;rounded=0;orthogonalLoop=1;jettySize=auto;html=1;entryX=0.5;entryY=1;entryDx=0;entryDy=0;exitX=0.622;exitY=0.005;exitDx=0;exitDy=0;exitPerimeter=0;" edge="1" parent="1" source="M5ew_5Aiv0LB9XWBmTWh-9" target="M5ew_5Aiv0LB9XWBmTWh-12">
          <mxGeometry relative="1" as="geometry" />
        </mxCell>
        <mxCell id="M5ew_5Aiv0LB9XWBmTWh-16" value="Consume" style="edgeLabel;html=1;align=center;verticalAlign=middle;resizable=0;points=[];" vertex="1" connectable="0" parent="M5ew_5Aiv0LB9XWBmTWh-14">
          <mxGeometry x="0.1872" y="3" relative="1" as="geometry">
            <mxPoint x="-17" y="1" as="offset" />
          </mxGeometry>
        </mxCell>
        <mxCell id="M5ew_5Aiv0LB9XWBmTWh-9" value="" style="rounded=0;whiteSpace=wrap;html=1;" vertex="1" parent="1">
          <mxGeometry x="290" y="290" width="240" height="140" as="geometry" />
        </mxCell>
        <mxCell id="M5ew_5Aiv0LB9XWBmTWh-7" value="" style="shape=image;aspect=fixed;image=data:image/png,iVBORw0KGgoAAAANSUhEUgAAAgAAAAEACAMAAADyTj5VAAADAFBMVEUAAAAkHR0jICAkICAjHyAjHyEjHyAjHyAjHyAjHyAjHyEjHyEjHiEkHh4AAAAhHSEjICAjHyAjHyAjHx8jHx8AAAAuFxckHx8jHyAjHx8oGxskJCQiICAjHx8jHyAkHiAkJCQkICAjHyAjHyAjHiErKysjICAjHyAjICAnJyckGyQiHyAjHyAjHSMmHh4jHyAkHx8jHyAjHh4hISEjHyAiIiIAAAAjHx8jHyAcHBwkHx8kHyAiHCIjHx8iHh4jHyAjHyAzMzMkHiEjHyAjHx8jHyAjHyAiHiAjHyAjHyAnHR0iHx8iHx8jICArFSskICAjHyAiHiIiHCIjHx8lHx8gICAjHyAhISEjHiAiIiIiHyAjICAjHiAjHyAhISEjHyBAAAAjHx8mGiYhISEiHyAgICAiIiIjICAiHx8kICAjHx8jHiAgICAkHyAjHx8kICAjHx8jHyAjHyAjHiAjHyAjICAjHyAiHiAjHyAiHiAjHyAjICAjHyAjHyAjHyAjHyEjHx8jHx8iHyEiHyEiHiAlICAnHx8cHBwjHyAiICAlICAjHyAkHiAkHyEjHx8jHyAjHx8eHh4jHiAkHyAjHyAkHiElISEjHyAjIyMgICAiHiIkHx8jHCMkHiEiHx8jHx8jHyAkICAiHSIjHyAkISEjHyAjHiAhHiEkHiEkICAjHyAjICAjHiEkHx8iHiAjHyEkHyAjICAaGhojICAkJCQjHiAgICAjHx8jHyAjHyAjHyEkICAjHh4iHx8kHx8iICAjHyEiICAjICAkHiEiHx8jHyEkHiAjHx8iHyEiHiAiHyAjHiEkICAkICAkHx8jHx8hISEjICAiHSIkICAmHBwkHyAjIyMjICAjHx8iICAiICAjICAiHyEhISEjHx8jHyAjHiAkHyEjHx8jHyEjHx8kHyEiHiIjHyEjHiAkHyAkHh4iHiAkHiEjICAiHx8iHx8jHiAkHyAjHiAfHx8kHx8jHyAjICAiHyAiHx8jHx8jHyEkHx8kHSEiICAjHyEjHyCWGF+oAAAA/3RSTlMAI2CIr8zd6OnNtIxlKwE9meHnokkDC3LlghMHeOvyhw4/1eZeBpD+qQ0cyNksIu8x9jsX7CYCu9QJepYt+0O+1gVV+ePf92/RrhpSSqoMgLdEJdspEL8ubh7eibj6L/UEkhQ29BgPUGJHOqAI7cO608a9sOChxcG1udjSp/DAhFFBnI13MCES7rI3+Mlk8+R7EeLQrVQ+xx0gPDIkVqtz/Xk0/Eamn0VdcdxnZmN/daXCCsoV2ijL6s59gTNaa2lsYUhNS4WPQpSGz204T2qKJ7E1QBvXFlebWXBflR+D8ZesmryLpEzEmJ0qflxYo1t2nqgZObaRjlOTfLNOaHQADG0wAAAcvUlEQVR42u2de4BP1RbHDxpM8YtqBjPFeI7HZYzHhEweg5DReN6oMb8YlPcVrpJnSYzXIMajTKRCL49QIonrSgqVJNHVQ9e95Zb0UN1zxx3GnLXWPmfv8zvz27/R+vzHb+191jnrO+ex99prGwbDMAzDMAzDMAzDMAzDMAzDMAzDMAzDMAzzh6ZI0WJXhRUvUbJ4+NXXlCqt2xsmqPiuLVPWtHDd9TdE6PaKCRKR5YqbBOUrROn2jAkC0TfeZAqoWClGt3dMQVO5imlD1Wq6/WMKlOo1Yk17atbS7SNTcNSuYzryp7q6vWQKinrFneNvmnHX6vaTKRjql5CJv2nG36DbU6YgKCIZ/xwFNNDtK+M9DaXu/7k0aqzbW8ZrEm6Wj79pNmmq21/GY5qpxN80b9HtL+MtzRPVBGDeqttjxlNaKMbfbNlKt8uMh7QWhDmpTdt2gp9u0+0z4x2+9lTwOxTteOHHqNuvjyN+Lh+t22vGMzrh+MYmF7n8e+c74rFFKd1eM56RgqIb18Vq0bUlMmmv22vGKxqiT4Bu3aFNj55IAX/W7TfjEXfC0JbshY2iekOru3T7zXjE3SCyqeR8X580fgZcmfgrgsjeQ9tVgO+JfXV7znhCPxDY9P603YBGwHCgbs8ZT7gXxFU4zl8JGDbT7TnjCTCu94kMBwHDwbo9Zzwh2RrWtCEiw4ihVsthuj1nPGG4NaxNxJYgZ3SEbs8ZT/iLNawjxZb3Wy1H6fac8YRwa1g7iC1Hg/Ei3Z4znjDGGta/ii3HWi3b6vac8YQHrGF9UGwJ7hXjdHvOeMJD1rAmCRd/tRpvtZyg23PGEyaCz/tJIsPJwHCKbs8ZT6gmO77zMDB8RLfnjCdMBXFNepS2mwaeACYvEbsySHgMBHY0bXcXMEuM0e054w3TQWRjyWm+GRnAbKZuvxmPmAUia84magD0nwOt5ur2m/GITPi3bc6bCm16zYc2sUXcHIsJRRbA4Jrpj1stFuK144tkex+StTizs+5TZOxYYmKGL738+7KaROmgJ5z7jWhw40NNZv/fevyIJ5c34OVkocoYQgHZdZ5a0T/B179+uQkriZ+7ORWOTHh6FcgfMIc+0ylB96kyFM+aAhJTRb88Z99j09W9yWZr7uSnQSjSwVRkkc+uu4S1c4QtSzzPRWdDj8XpavFfucKut+5/sW08f6qsW0zQeEFNAC/adOVbnuHQOuMlfhUIOV5Wif86m7v4kNESHXRYr/t8GUCtcIm4XaR3f3E/0zZIdVFno+4TZgAbX5GNf6NN4l4yN0t2Mm6a7hNmAI3byIVuSz9xH51flb6N1OHvwVBjsdQ9oNsycQ++BTI9XORJn7xrTFDIfMA5bIvsHt6vKcTfNJfrPl8GErE6zT5mqVur2zR/Xa3aYGIf3efLIIq0sAtZuG3Iokcoxd80Z/KYYOjh29ZeFK/y2/22Tcspxt8039B9tgyB74YJVLDmlxpi3w4VkMhl5as3d5i+Jpv8bc4QOZeYINP9xTBLxGJHVKrv2OgOIsLZyfflrjNZP3A69YKwQ/eZMiKiZueLUz2JBtWvw/G9Kv8nYxHiG6MsTwqELPlXAchsFbYNRTd+LTB5MwnZ3CfRM6MFVQGgcqNpeGeZnWnQqKbu02REKAogBs4BJ75FWO2CyYXpXHM6VFEUAKo4v5s0+xs026P7PBkBigL4OwjsKHrGP3oNsNur+zwZAYoCeBsE9k2B3T5g94Du82QEqAnAD17w00WTvZ3jrIbldZ8nI0BNAMvAH/bLQktQltDsoftEvSEi6539775W7L0ylXV74hVqAqgMwrpPaAlnDA7oPtHAyWx9S1je3krv6vbGK9QE8DgIq3hbOSiVQdIeTXnMwtO6r1Auvl0HLY+/ywJ413qir+n2VBE1AcA6M+Klw/WB5U5pj1ZZG+7SfYX+Txe4bPoPKoCi4DKI80brAstnpT0KQQFE4hz4P6gA4EyAePHPIWD5vrRHoSeAD4gc2D+oAHaBy7BfaAkfFisc+75EyAkg6kMc/ytGAJH5N5I57Gi+AlyG94SWsNZUQ2mXQk0AEX8l4n9FCKDHR1PGWWoCJLY/8nGmbZNp4DLUEVpWsRq2k08ODzUBHKXiX/gFEPnJSDK5N3HCrBibZiWBueglAN4q5st7FmICaDibukyFXQCLj1U0haRPaSxseDWwvV5gBxehHpH3LcQEUIG+SIVaAJ+OFlYEySW7puj7bi6wTD1Emi2BCQEKWxCHlgCib7riBBB5PN50JPVv9OD9UmjYjZoOqgWXDsT2MqQJLQE8jS7Nic+2HarX8XKGS2ETwBK6qg/iOvLKT0KJ3//ARcGqD4dGYQoOhpYAUGrLZ1DxhUsA/kpULTCak01h6013E2ZjYU5ILVyK6EYFF0NLADABYjWyKFQCiPpcOvw5hGdZGsd8Qb86vGp9D2j+ILLIkB8FCDEBJIDH5XBsUpgE0LW4SvxNs2S+GgG+alVFZtllmueZ1R2Mk8LNL1WcDCkB1ANnQoxoFyIBlCYWddhTMS/v4XX7kmDhez+qO/X1r/aeIoqNmtl/VvEypAQAtk+5iVjhUngEcEjwRWNHfO40bt+T2ept8xit5GZICeAtqzMphEmhEUDXLW6Cl57zgPfveMxN00ukfarkZ0gJ4GOrM9SO24VFAA0Vn/+XKFmkcnt3LS9xp5qjISUAsMnCXYRJIRGA/5Tb+MUFFn5zneLK0JASwPNWZ44TJoVEABMDDKNrqn6g6KnnAli/8PkvDn4e9mH4509+fbRBU6W2OgTgX1Ftd/LNM0fM79nhn3Of9Sidek8gL3GIRPne2s1QddVbAZy+Y531uzRx5tH+8s2DLoCOq8da5+liW1ZoHFiXF1g/ysv4jyxdKlbSNGmgsq8yAvhXccCaTpRZ531kYdSVV79zyeK0tZtnLv1/5sX/AB9OcXmW/1YSwDbob3HyxSjim+HkQG2d2/PSKbpZetkse1GPi0O05ttmz90+8Mx/vqtiyjHqwj4zO+TuAUn7ZT1UEsBadCBqd8vMfzUSOnb/6VwbkLyccqltX6czU5oN3IMGx0YTCTLVS60RHm7DpdW11uu+RfKaLhMV9v7TjYsvW3U8Os45pPF35D5EtznVCr/AUPlcYBUBvIX+TIjUNN+9tsMeSct9QRPAn+FenOZBP7a69U+2B/xsfQAC+J7u88PW4AXdt8upBuyCPMHMcC4522SZpH9qApiRBg80Bf89dR3j5N3waUESQK/ysHFPXDUr07GOe8vurgXQlXywpM4lqkFG3JZm40OVLvlM+9a0dzi7hrti8U4C6Ir+shfgQoStTzhdT9McdzYoAshEz9awGOTvColJ+ptedyuAI1R3c36gjZsLSwmPPwqm/ifZjS21bODsmBsB4AGtz1H5Ed8XzpczhzX9gyCAIetg0wdxGd5PZB6o5ol+7gSwker9FeH4bF96K4Dsf+Ks8SFH5wh8bfuS683j7AXQGRWqn4mWM0Q8IxV/01w0pMAFkPAkbDkPZ0fdJvlRVfUDVwLYR3Q1qqPYPpP6HhhFJ/9FP7cOO5949/4A6sLZCsB/Dh6sShSKf7Ipy8kCF8CPsOFN3dEZ3yjt70y/GwEQf9EnNtk16FUStyghLPibte9gfvs2D70QZQSCnQB830G/RtVGHRyTvp5mLFjF7rkAXoLtKuI/pKKygyo5LHchgANEPx/bN7mBcOlauwaLu5R6qlixSo+88H5HI1DsBIBytEviUbL/yF9O0wRJ/14LYBu8kBm4WtbTqU7Hyke6tUMpAazG3Vzl1GYKblMj4MgGLoDnoVPj66PmC+WTHjEeCwANAK2chPzt6CJLQ00AB1GzjMVObQ6joQuziX4BfAXXMsXjQi09ygZwPS8LoEdYLmAIvWrYJS5vuy0WABoAisU1tXzDA/FXRgARcajZSedWe1Gj7GBV+REKAA0AUUUqBbvZjb9/4nOd3r/v4+01Nthtd5ECuwtkMqjXHNg9sXnKdtqR1HU/Pb//1sk/lzr+gM0aLikB9MHNNjm3Oosv0w2aBYAymmKJjY1nUC9UGV9O9l82Wf9NC+Fbl5cCwB9TRLHEaUMpNyacyfdpG7FktHAlj4wAvkGtZsqEAdUENucWeOhzEQjgMJopuQ239S3CFyn7SBY0K31zwQsADwCVISaAfiGcGIbqKWX+JHhRlBHAi6iV1CqNUqjZdwUWciu0APAAUAWi7UB8jXqTny+t6YnCFGjnWgB4ACiZ+JD+FN9o07ZTK+nrznQtgFWo1TsSrYyuqFnPAgi2hMO5Aoi4H7pD5WcaOO/tlGD7s3pNClYANWDXn1P1sh9GHlQVlFKJJkc3ZQQwDDZaKVe5Ow62a+tllG2gBOD7J/RmFTXW2A9doXPC7c9iqL+pFGjlVgAvwZ4XRVI+nIBmbcQfaO+5FABc3GYWl4sDGj98zLMQ20MJYCt0Ziw51YDGCRfZZABuxEvYPBMAGgAaQW6hixJb4mzez33EPUBGAOjd6ZRcHNA9N8mT8DpDCAC9kJwiZ5qrw+ULJWwTUrumF5QA0ABQb3qAdCQwi/3Kzl9/HVcCQOP6d8vF4Ut0NNfze2pgAeyCr0rj6EpGX0GPJ9kf6Y0CEkDdOBinA+Tx+8NBy8/s/T2APgdlBFDCpQC+DRkB9IN/qd0Eab0ngd10hyP5UNZQCjRxIwA0ABQn2IgTrDoxtwxwcPi8GwF0g43WycUBPQIyAgiqClAAy+AAUPlHBS1BPb/s5k6HmgzPMQVauBAAGgBKWyI4/GBgWM7J31rw49XVS2A3uTigl+RGLgOqChDAm/AlZmhdQcON4M3rV+djwU+kFGigLoCJsKxgaifR0cGZxTmn0MFtu2UEgMocJlaXaGUYaD2o5NdDwAABnABupP8gavgbsPzK+Viw9nEKNFAXAHxeZW8THbwhsPzF2d/a4K1BRgB4dqSfRCu0NYRpjnQRTDfgkav8JInLx78E/qAkhN4ZvFalQAN1AUC2Cw++EFjaZlxcBIxhywgAvTiYL8mEYRZqplDqLyBsBbDyCXHDr62m38scDJTMSYG/ByyAf4mP/abVspHMJusg20VGAE8gnxbJXJmxqJlKoadAsBNA7FqbhuCvQ2pVOniopsDfAxXAjzbHnmg1vVrGXzDWKSOA0/gqdnVudRhPPwVr6w47AQzdaNMQvH1LpaVPKmAB2N3WwbhlBUOCSPWUMB/O8Dzm3GoiapTt9JHqFbaPgHM2RadBLpDUGmCQLZECfw9UAG1sEmRB8vInUlfHGk2plLB/IK/is5zaROGaMO2VohgA9i+Bq8UNrcl1sVL1yc8WsADMDuJjg7rLchtsW5dvSgmAWBawyqkNkVn9k1IUA8DhK+B1YUPrG3261MFA8mcK/D3wrwDx9mI9rYZLDBnC1AXQi1jJ7bBquzKRWWv3NPN1/+3OSsfKfHb86MB68hsDCAACAO/2ZjfhvibWFO94qYNt9FwA36ZZ/91OWCMPfIHIVdKwrt6VWxhC7HjRyLZw12Fi4W8J4VqfwzvG5n9gVPz1DbWqYBAggMnXA0+EVSfBy05nmYNN9VwA538H/raMFBx7utVOrhSKi3cAnE2fQxWbnUHWU6kSbelMlehqKTirKXv44wFMHEEBDGgLuhe9LQG7ejIHA6OHKQ7XTkYAPhBYc4rg2GDRflEZf9e7WBhiZFJ7XoQJNwgaMMGkyD6CW/hnzTNp2n4iM6xBAgVgLAEPpNkH6IagHMytMgfzfhzgvHEYTsB+RB/7FquV1GfgO9Y2ksvDUcnzC3QTPJsajzAFxN3mt5o+IVxJnkMVt2nkSADom/RtOqkNFCnfKnMwsGomBf7uRgBGJzArNZ6+GT1itZog4+8OVwLIIpOK4/cRf6QJpezWITTJ/1d1drppzxGJ7eilBNAKpqfdQzb8yWr0V4ljtYorCAEYfwf+ziSfiB9ZjTJkCthd5UoAOFcul83o03PPItOeyyViFjpXnl5T2hsBGI3BFFvsb1RDEIkMCf3B/UA8EsD6lqBfqsIo2lhLoqDS+jR3Augo+rMOe7fvZauo32eajsRvzZ21LiqzpvVEJ0kHHQSA3mMb1SYazgBGLzgfC35heCQAYylICsymRnmiQeEO0QZc+TgD/JUVgM2S6ezwY9sndekyafuxMMnqj2Vb53RYTm5Ne+ITsh7aCwCtcJ1APL6iwVV33qemI0ze9EoA6IKXoAamwd9bvPPGnbDsobQAqlO7n7qmRfPfZWsaJP7sjQA2wgfOi0RLmDXruGP5T9BdzwSQAIb5zOHEOMo9wKaSk787ob/SAjBWEPt4uEehVGzSIGkf7QSAalasXIhbwlVwI/z2R+qKLopnAjB6xYGuiVKWNwCTeIdl+3603FReAMZyLwWgwnWOM09SAkDLKIl5NrSn3SO2B/LhBbDeCQAtyk3FQ73RcIBmrP04+n+RvwoC8OEMD0lUKphQnAqsXPwlATSF8j+IrpYPFodIOmR3oHLYVw8FgPLqe+P5dLSA1DaJpR++iysIwIiZ7y5+Q0sXVd5qyIpjtrOUAIyp8Pz3oaZoBVl5mw0rbyWU7aUA0BB2TdS0Ezx+qs2ccG2i4LeKAIyOriqGxzfI0c41Ad0F4h9VcVMoALTgMgPtXJ2FZjEfFCqgchrhqpcCMK6F3qD9cyNQSGbvMQR0pIZdlQRgbHLxl5yaO+Sy6YFAFKC0a5xYAAktYHTRhB9azWLOE+QPnEmnPPVUAMZu0Hvaadi2GfIggyh7coGlZC1ZNQEYjUVTN0Li80ZyBtpvOfRhjVmDDnX5pkYY9WP2VBUvhQIwsmCe0jOw7VL8eZpE1SwdcItJ4q0AWsGiFuPgaG8MUSFmMLGQOGJHO9JfRQEYix80lXgsXxWuIefTRGaxgy8vNXj9W6IIk2MGkpwA4Oi5aZ6BjRcQ7n34Mxg1arpDVJrNWwEYB+Bt5jPYmCoSOrRcjNUo4SuymoULARg9zpkKVLGWe88SlAevYk0WGtQWWSQpbNJiJwA0dFsRFqQ/TY53lJ34Tt6nSOTkr+OEZ+yxAHABADguFkkW3a9YZlfevcJff6v45U1ZAEbEVrsqaVZWodmU96kdJVrAJ/EAPE34lEcCiIFPws1w+U8Fk2b2htE1ju/9Orm9bR1JrwWAhrAfg9lSbwk8SW1S81ilCr+8PCzNzl91ARjGDPuNKfJoRA3j++9EdufwLGY02qI63CMBoOQQ82F47IAGvT0XABrCPuUHzR12XbDHjQCMpufTnXum8n8u8A40nEfVj6wFn1mxvQxpbAWAdj+KhROO9YVF9XQIAJddngiaR7U13eNKAIZRe4rDzEDsuaWCpnCoJXsyabYQnnYpQxp7AaDkkC2w+ko1lSsIFtx7LwCUHJINv/SVFDvUTU4gQVaNOPFBkr6vL2wIb+4L5KKosrLUXgAoOcQcCYear5G/non3FrgA0BB2ebi87WOFPR2ruds0imDIthRym5LY8KN9xa18sPyxaDUDLNimsK7IQQC4YtRc6CRcSiBmr2jDCO8EYNSHt1s05SO9C2OOf54JIIfI/fcsso4vvPLyLPt6/x8Ah8YJLcGIQ5L8jJCTANBwXyJcBppAbpJE0DM6CALA2ThocmS75D2g91lPBXCBVifydee82QOsaXCP0PIuYCk/EuAoAPRmPQotcrhR6oq+PcAIhgDQEHYSWmOxn8rcR5Ts6nbfQBvi8nUX6WgNiw18I7Q8AyxXOPYtLQBjJ7xl4jeRgXGmI+H9jaAIAA9h4+VtfcSbhuYxp76hXQDw+Suebwdrrsw9jn3LCwDlUplvIJMPHPMfvrwwgBEUAeAhbDw9FvmL04vAmLOGfgGAdQlmXaElLDYtX15CQgDozTqeqAj3b9vp76G5H6bBEQAawqaWty2kt+u7SMbE3DFPzQJ4A7gl3ti8O7CUXyckIQCjD/yCqUKUWKu+A+3ZeonEMhcTyoIkgBg42kMtb/NNEu/dfPWlqi6aBQDLqonX3/0ALOX3Eb0t2QK9uOTNZACZfezff5Ca+ii5O29ZwaPWXprBHrpYf6feeZ62mtxO+jsI+tuMNGvwHfU2mFbm8g2upqUX0bpTBdQEsAu4tkNoCcsmHAjcVVdEPXHS8n4V2/LhZ+Xq5eth/c5r5ltEO+/IzzEFeUA1AYA7pjlaaAnLoAZryymKzks/fmR3jTJfF2tW9JBU1QDNVD99+/KtD5cp895raxcGtgmnBGoCAEWqzNmi69kUpLqUD/ZFZCRRE4ABE8MEGWzoZUGyRDkTdBQFAL9nug0hzfztgd1u3efJCFAUAKogS5dhuAOava/7PBkBigLoDwfZk7oQVoPgx1dFuQrlTPBRFICBNtmYjYeDf4iDRlKFmxkdqAoA73U7HiYPvoUHMySKXzBa6JG/dshGiQa1TqDomifzz/WeJbIc2yquD2WCQ5/j4ZYk29Qx5w84NvoRx9fMmPJD7vKb6GdfpjLcdug+UwYTPetVIlTmoucc3tc6plHNzPhhyclXtaQXHbQJ5bHXPyj+teSSlAuMesG+xuNxU5Xtkk4xQWOQbbGAV3+wa1urrGzgL7LBr/t0GSv+O1bahyz2R7vnwB7pJNb/k1RX2jEmKPSd4By1MQ1tOvjRuX0+lus+X8ZKveIyYZt3WtxDqxYK8X8o4A0EGE9pPEcucFtsqjpEdZPrI4cNMqNLTPA421s2dFvECX9GlqwC5hd4QgOjRMzbkpHL4RWbkcHacovMN/SVd40JBquk4naRnjYDAtNkykYtcN4OmQkqayWilo+5Nl1F3OW0/Cq1GU8BhBiPKhZPSLQt7zXIvuTUiKWybjHB4qBk4PM4ZfsNN2S3uNZIox1+3WfLQHaKopWRJvrljH2Phx+OI5uVf0pnGjgjYAwRquwx/+kzLefr4PTvd1N1Yx50eow3rTYStmt3/zecARaKVCYCPDLfgzprMPFa97hzv533fzH84pL9xHk37/4tRveJMjS4imY7cIfvNweZDJPsvFX/0qfr1fbrPkdGTCaqCVQS7ebxAdyUxoxVK/XNhC5oB9nZxDxtJqpUcV79SExIAmsrxZIrqpvDL7tFuv1mvCEBFqoR5OrDnZcS3e3/yYQasGjPygO0Xa0twPA+pcMwocq/QVyTRYYw6fO/uj1nPAHWUReO8cEin2V0e854ApgIXinM1EgoabVsodtzxhPAXiFtxJbrrJbzdXvOeMIwa1g3iy2TrZbFdXvOeALYz+sBsSXYUauEbs8ZTzhlDetMseVDVstRuj1nPAHk8JUVW4J1IyN0e854wvdggG+A0BIsGz2l23PGE+A+pq1Fhn2A4WiVozAhC6zcd73IEO5ny9OBVwYrQFyTFtN2Q+AGw5N0e854gv8ECOxg2q4cMIs9rHYcJlSB2wZnkyX8l8FZ4xG6/WY8AhV4i+uKjdCen2Yx3X4zHrExFcZ2zSZoM+BmaGP20e034xW/ouDGgWSPxnjn5Sa6vWY8o4uJ+TXfYyCzWDtsoLDpLxPqhBMKSP11Vu0LCwD7Pv7lCeLnqlzi7wpiv0mT2qZ3O8FPR3X7zHjJOVORlq10u8x4yaYMRQFwle8rjNVq8T+m21/GY3xKJSKaNNXtL+M1UR/Kx/+mxoEfjwk1as+TjX/8oMCPxoQeS4fKxT9poG5PmYLhdBuZ+Kfv1O0nU1B8utk5/sW5xtsVTPTfneLfgYt8XdlUrmIX/uuq6faPKWiiH9kiCn/FYgMC758JeSKXr6HCX74CF3j/o+C79muweUD5wTsjAu+XKUTUe27vgs2vXFdyTdj09+7trtsbhmEYhmEYhmEYhmEYhmEYhmEYhmEYhmEYhmGs/A/+0Fxeuob9SQAAAABJRU5ErkJggg==;" vertex="1" parent="1">
          <mxGeometry x="320" y="322" width="159" height="76" as="geometry" />
        </mxCell>
        <mxCell id="M5ew_5Aiv0LB9XWBmTWh-19" style="edgeStyle=orthogonalEdgeStyle;rounded=0;orthogonalLoop=1;jettySize=auto;html=1;" edge="1" parent="1" source="M5ew_5Aiv0LB9XWBmTWh-12" target="M5ew_5Aiv0LB9XWBmTWh-18">
          <mxGeometry relative="1" as="geometry" />
        </mxCell>
        <mxCell id="M5ew_5Aiv0LB9XWBmTWh-20" value="Update location" style="edgeLabel;html=1;align=center;verticalAlign=middle;resizable=0;points=[];" vertex="1" connectable="0" parent="M5ew_5Aiv0LB9XWBmTWh-19">
          <mxGeometry x="-0.2704" relative="1" as="geometry">
            <mxPoint x="-43" as="offset" />
          </mxGeometry>
        </mxCell>
        <mxCell id="M5ew_5Aiv0LB9XWBmTWh-12" value="Location consumer" style="rounded=1;whiteSpace=wrap;html=1;" vertex="1" parent="1">
          <mxGeometry x="460" y="133" width="120" height="60" as="geometry" />
        </mxCell>
        <mxCell id="M5ew_5Aiv0LB9XWBmTWh-23" style="edgeStyle=orthogonalEdgeStyle;rounded=0;orthogonalLoop=1;jettySize=auto;html=1;exitX=0.5;exitY=1;exitDx=0;exitDy=0;" edge="1" parent="1" source="M5ew_5Aiv0LB9XWBmTWh-18" target="M5ew_5Aiv0LB9XWBmTWh-22">
          <mxGeometry relative="1" as="geometry" />
        </mxCell>
        <mxCell id="M5ew_5Aiv0LB9XWBmTWh-24" style="edgeStyle=orthogonalEdgeStyle;rounded=0;orthogonalLoop=1;jettySize=auto;html=1;exitX=0.5;exitY=1;exitDx=0;exitDy=0;" edge="1" parent="1" source="M5ew_5Aiv0LB9XWBmTWh-18" target="M5ew_5Aiv0LB9XWBmTWh-21">
          <mxGeometry relative="1" as="geometry" />
        </mxCell>
        <mxCell id="M5ew_5Aiv0LB9XWBmTWh-18" value="Database" style="shape=datastore;whiteSpace=wrap;html=1;" vertex="1" parent="1">
          <mxGeometry x="710" y="390" width="70" height="70" as="geometry" />
        </mxCell>
        <mxCell id="M5ew_5Aiv0LB9XWBmTWh-31" style="edgeStyle=orthogonalEdgeStyle;rounded=0;orthogonalLoop=1;jettySize=auto;html=1;entryX=0.5;entryY=0;entryDx=0;entryDy=0;entryPerimeter=0;startArrow=classic;startFill=1;" edge="1" parent="1" source="M5ew_5Aiv0LB9XWBmTWh-21" target="M5ew_5Aiv0LB9XWBmTWh-27">
          <mxGeometry relative="1" as="geometry" />
        </mxCell>
        <mxCell id="M5ew_5Aiv0LB9XWBmTWh-32" value="REST" style="edgeLabel;html=1;align=center;verticalAlign=middle;resizable=0;points=[];" vertex="1" connectable="0" parent="M5ew_5Aiv0LB9XWBmTWh-31">
          <mxGeometry x="-0.2182" y="-2" relative="1" as="geometry">
            <mxPoint x="2" as="offset" />
          </mxGeometry>
        </mxCell>
        <mxCell id="M5ew_5Aiv0LB9XWBmTWh-33" style="edgeStyle=orthogonalEdgeStyle;rounded=0;orthogonalLoop=1;jettySize=auto;html=1;dashed=1;startArrow=classic;startFill=1;" edge="1" parent="1" source="M5ew_5Aiv0LB9XWBmTWh-21" target="M5ew_5Aiv0LB9XWBmTWh-22">
          <mxGeometry relative="1" as="geometry" />
        </mxCell>
        <mxCell id="M5ew_5Aiv0LB9XWBmTWh-35" value="gRPC" style="edgeLabel;html=1;align=center;verticalAlign=middle;resizable=0;points=[];" vertex="1" connectable="0" parent="M5ew_5Aiv0LB9XWBmTWh-33">
          <mxGeometry x="-0.1497" y="-2" relative="1" as="geometry">
            <mxPoint x="16" y="-2" as="offset" />
          </mxGeometry>
        </mxCell>
        <mxCell id="M5ew_5Aiv0LB9XWBmTWh-21" value="Person" style="rounded=1;whiteSpace=wrap;html=1;" vertex="1" parent="1">
          <mxGeometry x="180" y="570" width="123" height="60" as="geometry" />
        </mxCell>
        <mxCell id="M5ew_5Aiv0LB9XWBmTWh-22" value="Connection" style="rounded=1;whiteSpace=wrap;html=1;" vertex="1" parent="1">
          <mxGeometry x="470" y="570" width="120" height="60" as="geometry" />
        </mxCell>
        <mxCell id="M5ew_5Aiv0LB9XWBmTWh-27" value="Frontend" style="outlineConnect=0;dashed=0;verticalLabelPosition=bottom;verticalAlign=top;align=center;html=1;shape=mxgraph.aws3.management_console;fillColor=#050505;gradientColor=none;" vertex="1" parent="1">
          <mxGeometry x="200" y="740" width="83" height="90" as="geometry" />
        </mxCell>
      </root>
    </mxGraphModel>
  </diagram>
</mxfile>
